<?xml version="1.0" encoding="UTF-8"?>
<svg width="32" height="32" viewBox="0 0 32 32" xmlns="http://www.w3.org/2000/svg">
  <defs>
    <linearGradient id="emerald" x1="0%" y1="0%" x2="100%" y2="100%">
      <stop offset="0%" style="stop-color:#10b981"/>
      <stop offset="100%" style="stop-color:#059669"/>
    </linearGradient>
    <linearGradient id="mint" x1="0%" y1="0%" x2="0%" y2="100%">
      <stop offset="0%" style="stop-color:#6ee7b7"/>
      <stop offset="100%" style="stop-color:#34d399"/>
    </linearGradient>
  </defs>

  <!-- White background -->
  <circle cx="16" cy="16" r="16" fill="#ffffff"/>

  <!-- Starburst (8 rays for 32px) -->
  <g transform="translate(16, 16)">
    <!-- Ray 1 (top) -->
    <path d="M 0,-12 Q -2,-18 0,-24 Q 2,-18 0,-12" fill="url(#emerald)" opacity="0.95"/>
    <!-- Ray 2 (top-right) -->
    <path d="M 8,-8 Q 10,-15 16,-20 Q 12,-12 8,-8" fill="url(#emerald)" opacity="0.92"/>
    <!-- Ray 3 (right) -->
    <path d="M 12,0 Q 18,-4 24,0 Q 18,4 12,0" fill="url(#emerald)" opacity="0.95"/>
    <!-- Ray 4 (bottom-right) -->
    <path d="M 8,8 Q 12,12 16,20 Q 10,15 8,8" fill="url(#emerald)" opacity="0.92"/>
    <!-- Ray 5 (bottom) -->
    <path d="M 0,12 Q -2,18 0,24 Q 2,18 0,12" fill="url(#emerald)" opacity="0.95"/>
    <!-- Ray 6 (bottom-left) -->
    <path d="M -8,8 Q -12,12 -16,20 Q -10,15 -8,8" fill="url(#emerald)" opacity="0.92"/>
    <!-- Ray 7 (left) -->
    <path d="M -12,0 Q -18,-4 -24,0 Q -18,4 -12,0" fill="url(#emerald)" opacity="0.95"/>
    <!-- Ray 8 (top-left) -->
    <path d="M -8,-8 Q -10,-15 -16,-20 Q -12,-12 -8,-8" fill="url(#emerald)" opacity="0.92"/>

    <!-- Center core -->
    <circle cx="0" cy="0" r="5" fill="#10b981"/>
    <circle cx="0" cy="0" r="3" fill="url(#mint)"/>
  </g>
</svg>
