<?xml version="1.0" encoding="UTF-8"?>
<svg width="16" height="16" viewBox="0 0 16 16" xmlns="http://www.w3.org/2000/svg">
  <defs>
    <linearGradient id="emerald" x1="0%" y1="0%" x2="100%" y2="100%">
      <stop offset="0%" style="stop-color:#10b981"/>
      <stop offset="100%" style="stop-color:#059669"/>
    </linearGradient>
    <linearGradient id="mint" x1="0%" y1="0%" x2="0%" y2="100%">
      <stop offset="0%" style="stop-color:#6ee7b7"/>
      <stop offset="100%" style="stop-color:#34d399"/>
    </linearGradient>
  </defs>

  <!-- White background -->
  <circle cx="8" cy="8" r="8" fill="#ffffff"/>

  <!-- Simplified starburst (8 rays for 16px) -->
  <g transform="translate(8, 8)">
    <!-- Ray 1 (top) -->
    <path d="M 0,-6 L 1,-3 L 0,-1.5 L -1,-3 Z" fill="url(#emerald)"/>
    <!-- Ray 2 (top-right) -->
    <path d="M 4,-4 L 4.5,-2 L 3,-0.5 L 2,-2 Z" fill="url(#emerald)"/>
    <!-- Ray 3 (right) -->
    <path d="M 6,0 L 3,1 L 1.5,0 L 3,-1 Z" fill="url(#emerald)"/>
    <!-- Ray 4 (bottom-right) -->
    <path d="M 4,4 L 2,2 L 3,0.5 L 4.5,2 Z" fill="url(#emerald)"/>
    <!-- Ray 5 (bottom) -->
    <path d="M 0,6 L -1,3 L 0,1.5 L 1,3 Z" fill="url(#emerald)"/>
    <!-- Ray 6 (bottom-left) -->
    <path d="M -4,4 L -2,2 L -3,0.5 L -4.5,2 Z" fill="url(#emerald)"/>
    <!-- Ray 7 (left) -->
    <path d="M -6,0 L -3,1 L -1.5,0 L -3,-1 Z" fill="url(#emerald)"/>
    <!-- Ray 8 (top-left) -->
    <path d="M -4,-4 L -4.5,-2 L -3,-0.5 L -2,-2 Z" fill="url(#emerald)"/>

    <!-- Center core -->
    <circle cx="0" cy="0" r="2" fill="#10b981"/>
    <circle cx="0" cy="0" r="1.2" fill="url(#mint)"/>
  </g>
</svg>
