<?xml version="1.0" encoding="UTF-8"?>
<svg width="64" height="64" viewBox="0 0 64 64" xmlns="http://www.w3.org/2000/svg">
  <defs>
    <linearGradient id="emerald" x1="0%" y1="0%" x2="100%" y2="100%">
      <stop offset="0%" style="stop-color:#10b981"/>
      <stop offset="100%" style="stop-color:#059669"/>
    </linearGradient>
    <linearGradient id="mint" x1="0%" y1="0%" x2="0%" y2="100%">
      <stop offset="0%" style="stop-color:#6ee7b7"/>
      <stop offset="100%" style="stop-color:#34d399"/>
    </linearGradient>
    <filter id="glow">
      <feGaussianBlur stdDeviation="1" result="blur"/>
      <feFlood flood-color="#10b981" flood-opacity="0.3"/>
      <feComposite in2="blur" operator="in"/>
      <feMerge>
        <feMergeNode/>
        <feMergeNode in="SourceGraphic"/>
      </feMerge>
    </filter>
  </defs>

  <!-- White background -->
  <circle cx="32" cy="32" r="32" fill="#ffffff"/>

  <!-- Starburst (8 rays for 64px) -->
  <g transform="translate(32, 32)">
    <!-- Ray 1 (top) -->
    <path d="M 0,-24 Q -4,-36 0,-48 Q 4,-36 0,-24" fill="url(#emerald)" opacity="0.95"/>
    <!-- Ray 2 (top-right) -->
    <path d="M 17,-17 Q 20,-30 32,-40 Q 24,-24 17,-17" fill="url(#emerald)" opacity="0.92"/>
    <!-- Ray 3 (right) -->
    <path d="M 24,0 Q 36,-8 48,0 Q 36,8 24,0" fill="url(#emerald)" opacity="0.95"/>
    <!-- Ray 4 (bottom-right) -->
    <path d="M 17,17 Q 24,24 32,40 Q 20,30 17,17" fill="url(#emerald)" opacity="0.92"/>
    <!-- Ray 5 (bottom) -->
    <path d="M 0,24 Q -4,36 0,48 Q 4,36 0,24" fill="url(#emerald)" opacity="0.95"/>
    <!-- Ray 6 (bottom-left) -->
    <path d="M -17,17 Q -24,24 -32,40 Q -20,30 -17,17" fill="url(#emerald)" opacity="0.92"/>
    <!-- Ray 7 (left) -->
    <path d="M -24,0 Q -36,-8 -48,0 Q -36,8 -24,0" fill="url(#emerald)" opacity="0.95"/>
    <!-- Ray 8 (top-left) -->
    <path d="M -17,-17 Q -20,-30 -32,-40 Q -24,-24 -17,-17" fill="url(#emerald)" opacity="0.92"/>

    <!-- Center core -->
    <circle cx="0" cy="0" r="10" fill="#10b981" filter="url(#glow)"/>
    <circle cx="0" cy="0" r="6" fill="url(#mint)"/>
  </g>
</svg>
