<?xml version="1.0" encoding="UTF-8"?>
<svg width="128" height="128" viewBox="0 0 128 128" xmlns="http://www.w3.org/2000/svg">
  <defs>
    <linearGradient id="emerald" x1="0%" y1="0%" x2="100%" y2="100%">
      <stop offset="0%" style="stop-color:#10b981"/>
      <stop offset="100%" style="stop-color:#059669"/>
    </linearGradient>
    <linearGradient id="mint" x1="0%" y1="0%" x2="0%" y2="100%">
      <stop offset="0%" style="stop-color:#6ee7b7"/>
      <stop offset="100%" style="stop-color:#34d399"/>
    </linearGradient>
    <filter id="glow">
      <feGaussianBlur stdDeviation="1.5" result="blur"/>
      <feFlood flood-color="#10b981" flood-opacity="0.4"/>
      <feComposite in2="blur" operator="in"/>
      <feMerge>
        <feMergeNode/>
        <feMergeNode in="SourceGraphic"/>
      </feMerge>
    </filter>
  </defs>

  <!-- White background -->
  <circle cx="64" cy="64" r="64" fill="#ffffff"/>

  <!-- Starburst (8 rays for 128px) -->
  <g transform="translate(64, 64)">
    <!-- Ray 1 (top) -->
    <path d="M 0,-48 Q -8,-72 0,-96 Q 8,-72 0,-48" fill="url(#emerald)" opacity="0.95"/>

    <!-- Ray 2 (top-right) -->
    <path d="M 34,-34 Q 40,-60 64,-80 Q 48,-48 34,-34" fill="url(#emerald)" opacity="0.92"/>

    <!-- Ray 3 (right) -->
    <path d="M 48,0 Q 72,-16 96,0 Q 72,16 48,0" fill="url(#emerald)" opacity="0.95"/>

    <!-- Ray 4 (bottom-right) -->
    <path d="M 34,34 Q 48,48 64,80 Q 40,60 34,34" fill="url(#emerald)" opacity="0.92"/>

    <!-- Ray 5 (bottom) -->
    <path d="M 0,48 Q -8,72 0,96 Q 8,72 0,48" fill="url(#emerald)" opacity="0.95"/>

    <!-- Ray 6 (bottom-left) -->
    <path d="M -34,34 Q -48,48 -64,80 Q -40,60 -34,34" fill="url(#emerald)" opacity="0.92"/>

    <!-- Ray 7 (left) -->
    <path d="M -48,0 Q -72,-16 -96,0 Q -72,16 -48,0" fill="url(#emerald)" opacity="0.95"/>

    <!-- Ray 8 (top-left) -->
    <path d="M -34,-34 Q -40,-60 -64,-80 Q -48,-48 -34,-34" fill="url(#emerald)" opacity="0.92"/>

    <!-- Center core -->
    <circle cx="0" cy="0" r="20" fill="#10b981" filter="url(#glow)"/>
    <circle cx="0" cy="0" r="12" fill="url(#mint)"/>

    <!-- Three inner lines representing guides -->
    <g opacity="0.7">
      <rect x="-8" y="-4" width="16" height="2" fill="#0d1f0d" rx="1"/>
      <rect x="-8" y="1" width="16" height="2" fill="#0d1f0d" rx="1"/>
      <rect x="-8" y="6" width="16" height="2" fill="#0d1f0d" rx="1"/>
    </g>
  </g>
</svg>
